<svg xmlns="http://www.w3.org/2000/svg"  viewBox="0 0 64 64" width="128px" height="128px" fill-rule="evenodd" clip-rule="evenodd"><linearGradient id="SVGID_1_" x1="32" x2="32" y1="6.489" y2="59.792" gradientUnits="userSpaceOnUse"><stop offset="0" stop-color="#1a6dff"/><stop offset="1" stop-color="#c822ff"/></linearGradient><path fill="url(#SVGID_1_)" d="M32,58C17.7,58,6,46.3,6,32S17.7,6,32,6s26,11.7,26,26S46.3,58,32,58z M32,8C18.8,8,8,18.8,8,32s10.8,24,24,24 s24-10.8,24-24S45.2,8,32,8z"/><linearGradient id="SVGID_2_" x1="32" x2="32" y1="6.489" y2="59.792" gradientUnits="userSpaceOnUse"><stop offset="0" stop-color="#1a6dff"/><stop offset="1" stop-color="#c822ff"/></linearGradient><path fill="url(#SVGID_2_)" d="M32,54c-12.1,0-22-9.9-22-22s9.9-22,22-22s22,9.9,22,22S44.1,54,32,54z M32,12c-11,0-20,9-20,20s9,20,20,20 s20-9,20-20S43,12,32,12z"/><g><linearGradient id="SVGID_3_" x1="39.893" x2="39.893" y1="16.192" y2="39.112" gradientUnits="userSpaceOnUse"><stop offset="0" stop-color="#6dc7ff"/><stop offset="1" stop-color="#e6abff"/></linearGradient><path fill="url(#SVGID_3_)" fill-rule="evenodd" d="M40.2,24.6c1.8,0,3.2,0.6,4.2,1.9c1,1.2,1.5,3,1.5,5.3 s-0.5,4.1-1.5,5.3c-1,1.3-2.4,1.9-4.2,1.9c-0.9,0-1.7-0.2-2.5-0.5c-0.7-0.3-1.4-0.9-1.9-1.5h-0.2l-0.4,1.8h-1.5V19h2.1v4.8 c0,1.1,0,2-0.1,2.9h0.1C36.9,25.3,38.3,24.6,40.2,24.6L40.2,24.6z M39.9,26.4c-1.4,0-2.5,0.4-3.1,1.2c-0.6,0.8-0.9,2.2-0.9,4.2 s0.3,3.3,1,4.2c0.6,0.8,1.7,1.3,3.1,1.3c1.3,0,2.3-0.5,2.9-1.4c0.6-0.9,0.9-2.3,0.9-4.1c0-1.8-0.3-3.2-0.9-4 C42.2,26.8,41.3,26.4,39.9,26.4L39.9,26.4z" clip-rule="evenodd"/><linearGradient id="SVGID_4_" x1="24.101" x2="24.101" y1="16.192" y2="39.112" gradientUnits="userSpaceOnUse"><stop offset="0" stop-color="#6dc7ff"/><stop offset="1" stop-color="#e6abff"/></linearGradient><path fill="url(#SVGID_4_)" fill-rule="evenodd" d="M24,37.2c1.4,0,2.4-0.4,3.1-1.1c0.6-0.8,1-2,1-3.8v-0.5 c0-1.9-0.3-3.3-1-4.2s-1.7-1.3-3.1-1.3c-1.2,0-2.2,0.5-2.8,1.4c-0.6,1-1,2.3-1,4.1c0,1.7,0.3,3.1,1,4C21.8,36.8,22.7,37.2,24,37.2 L24,37.2z M23.7,39c-1.8,0-3.2-0.6-4.2-1.9c-1-1.3-1.5-3-1.5-5.3c0-2.3,0.5-4,1.5-5.3c1-1.3,2.4-1.9,4.2-1.9c1.9,0,3.4,0.7,4.4,2.2 h0.1l0.3-1.9h1.7V45h-2.1V39c0-0.8,0-1.6,0.1-2.2h-0.2C27.1,38.3,25.6,39,23.7,39L23.7,39z" clip-rule="evenodd"/></g></svg>